<svg width="114px" height="114px" viewBox="0 0 114 114" version="1.1" xmlns="http://www.w3.org/2000/svg" xmlns:xlink="http://www.w3.org/1999/xlink">
    <g id="Page" stroke="none" stroke-width="1" fill="none" fill-rule="evenodd">
        <g id="启动页" transform="translate(-584.000000, -188.000000)" stroke-width="6.478976">
            <g id="Group-2" transform="translate(584.000000, 188.000000)">
                <g id="Group" transform="translate(57.000000, 57.000000) rotate(-179.000000) translate(-57.000000, -57.000000) translate(0.969336, 0.969336)" stroke="#000000">
                    <path d="M91.063941,19.6381178 C94.1680752,53.2061068 92.3157883,74.496543 84.2365781,82.6928432 C76.1441328,90.9025703 54.3572107,93.6268036 19.6628612,92.0241434 L19.6628612,92.0241434 L19.6628612,19.6381178 Z" id="Rectangle" transform="translate(56.030664, 56.030664) rotate(45.000000) translate(-56.030664, -56.030664) "></path>
                </g>
                <g id="Group" transform="translate(56.757435, 57.744831) rotate(-1.000000) translate(-56.757435, -57.744831) translate(29.015011, 30.002407)" stroke="#1C1D2F">
                    <path d="M43.5944065,11.3589302 C44.8946469,26.2992416 44.2605881,36.0242676 40.5432196,39.7955109 C36.8124771,43.5803222 26.8514553,44.6326808 11.3711814,43.9992766 L11.3711814,43.9992766 L11.3711814,11.3589302 Z" id="Rectangle" transform="translate(27.742424, 27.742424) rotate(45.000000) translate(-27.742424, -27.742424) "></path>
                </g>
            </g>
        </g>
    </g>
</svg>